<svg xmlns="http://www.w3.org/2000/svg" width="1024" height="1024" viewBox="0 0 1024 1024">
<g>
<path d="M 0.00 0.00 L 1024.00 0.00 L 1024.00 1024.00 L 0.00 1024.00 ZM 380.00 640.07 C383.02,640.42 385.75,640.77 386.05,640.85 C386.36,640.93 388.13,639.42 390.00,637.50 C392.62,634.79 393.56,632.80 394.11,628.75 C394.51,625.86 395.82,620.80 397.02,617.50 C400.86,606.97 399.61,589.26 394.79,586.00 C393.57,585.17 391.66,583.44 390.54,582.15 C389.42,580.86 387.28,579.17 385.78,578.40 C384.29,577.62 381.36,575.13 379.28,572.86 C377.20,570.59 373.09,566.95 370.14,564.76 C367.19,562.56 362.97,558.91 360.77,556.64 C358.57,554.36 355.58,551.73 354.13,550.78 C350.68,548.52 340.73,539.53 330.30,529.25 C325.70,524.71 321.57,521.00 321.13,521.00 C319.81,521.00 312.00,513.18 312.00,511.85 C312.00,510.26 316.01,506.00 317.52,506.00 C318.16,506.00 319.50,505.10 320.50,504.00 C321.50,502.90 322.93,502.00 323.69,502.00 C325.62,502.00 332.86,498.21 335.33,495.91 C336.46,494.86 338.39,494.00 339.62,494.00 C340.94,494.00 342.11,493.22 342.46,492.13 C343.16,489.93 352.16,485.00 355.48,485.00 C356.74,485.00 359.97,483.49 362.66,481.64 C365.35,479.79 368.54,477.96 369.76,477.58 C372.76,476.62 380.85,472.06 381.55,470.92 C381.86,470.41 383.14,470.00 384.38,470.00 C385.63,470.00 389.91,467.75 393.90,465.00 C397.89,462.25 402.23,460.00 403.54,460.00 C404.85,460.00 406.50,459.31 407.21,458.47 C410.57,454.47 411.39,454.00 415.04,454.00 C417.94,454.00 419.80,453.23 422.34,451.00 C424.22,449.35 427.05,447.44 428.63,446.75 C437.07,443.05 448.88,433.71 448.97,430.66 C448.99,430.19 449.90,428.67 451.00,427.27 C452.26,425.67 453.00,423.20 453.01,420.62 C453.02,418.35 454.14,414.10 455.51,411.15 C456.88,408.21 458.00,404.69 458.00,403.34 C458.00,401.98 458.89,398.76 459.97,396.19 C461.06,393.61 462.39,389.48 462.93,387.00 C463.82,382.93 463.66,382.14 461.32,378.75 C459.69,376.39 457.95,375.01 456.61,375.02 C452.63,375.07 443.02,378.89 440.47,381.44 C437.43,384.48 434.29,386.14 427.33,388.42 C424.48,389.35 421.62,390.76 420.96,391.55 C420.30,392.34 417.66,393.62 415.10,394.38 C412.54,395.14 408.70,396.94 406.58,398.38 C404.46,399.82 401.97,401.00 401.05,401.00 C400.13,401.00 396.71,402.62 393.44,404.59 C390.17,406.56 385.48,408.96 383.00,409.92 C380.52,410.88 376.27,413.09 373.55,414.83 C370.83,416.58 367.64,418.00 366.46,418.00 C365.28,418.00 363.52,418.87 362.56,419.93 C361.60,420.99 357.98,423.00 354.51,424.39 C351.04,425.78 344.67,428.73 340.35,430.95 C336.03,433.18 332.14,435.00 331.71,435.00 C331.27,435.00 330.05,435.81 328.99,436.79 C327.93,437.78 324.20,439.54 320.69,440.71 C317.19,441.88 312.13,444.23 309.46,445.92 C306.79,447.61 303.55,449.00 302.26,449.00 C300.96,449.00 298.89,450.09 297.65,451.43 C296.41,452.77 294.07,454.19 292.45,454.59 C289.36,455.35 285.85,456.94 277.50,461.34 C274.75,462.79 271.04,464.66 269.25,465.50 C267.46,466.34 266.00,467.44 266.00,467.93 C266.00,468.43 264.62,469.14 262.94,469.51 C261.12,469.91 259.55,471.06 259.06,472.34 C258.60,473.53 256.63,476.07 254.67,477.98 C251.63,480.95 250.93,482.51 249.95,488.48 C249.32,492.34 248.40,496.62 247.91,498.00 C246.58,501.73 244.87,514.50 244.57,523.00 C244.17,534.41 245.16,536.06 259.53,547.98 C266.37,553.66 273.34,559.14 275.02,560.16 C276.70,561.18 278.32,562.67 278.63,563.48 C278.94,564.29 281.29,566.32 283.85,567.99 C292.36,573.56 295.49,576.11 296.74,578.48 C297.42,579.78 299.61,581.38 301.61,582.04 C303.60,582.69 307.66,585.43 310.63,588.12 C313.59,590.80 316.62,593.00 317.35,593.00 C318.08,593.00 319.16,594.05 319.75,595.34 C320.33,596.63 322.45,598.46 324.46,599.41 C326.46,600.36 328.52,602.25 329.04,603.60 C329.55,604.95 330.76,606.34 331.73,606.68 C332.71,607.03 337.71,610.73 342.86,614.91 C348.01,619.08 353.28,623.20 354.57,624.06 C355.86,624.92 357.86,626.82 359.01,628.29 C360.17,629.75 363.11,631.84 365.55,632.92 C368.00,634.00 370.00,635.35 370.00,635.91 C370.00,637.64 374.24,639.41 380.00,640.07 ZM 561.27 643.24 C563.22,644.56 568.95,643.30 572.90,640.68 C574.90,639.36 577.65,637.94 579.01,637.52 C580.38,637.11 582.17,636.19 583.00,635.48 C583.83,634.77 588.10,632.72 592.50,630.91 C596.90,629.11 601.72,626.80 603.21,625.78 C604.69,624.76 607.39,623.42 609.21,622.80 C611.02,622.19 613.77,620.63 615.33,619.34 C616.88,618.05 618.85,617.00 619.71,617.00 C620.56,617.00 625.82,614.80 631.38,612.11 C636.95,609.41 642.51,606.91 643.75,606.54 C644.99,606.17 646.45,605.03 646.99,604.01 C647.54,603.00 649.45,601.85 651.24,601.47 C653.03,601.08 655.62,600.20 657.00,599.50 C658.38,598.81 662.20,596.96 665.50,595.40 C668.80,593.84 672.09,591.98 672.82,591.28 C673.55,590.58 674.70,590.00 675.39,590.00 C676.07,590.00 684.23,586.17 693.53,581.50 C702.82,576.83 710.82,573.00 711.31,573.00 C711.79,573.00 713.33,572.10 714.73,571.00 C716.13,569.90 717.96,569.00 718.81,569.00 C719.65,569.00 721.05,568.40 721.92,567.67 C722.79,566.94 725.75,565.52 728.50,564.51 C731.25,563.51 734.77,561.63 736.33,560.34 C737.88,559.06 739.96,558.00 740.94,558.00 C741.93,558.00 743.82,557.14 745.15,556.09 C746.49,555.05 750.35,553.06 753.73,551.69 C765.32,546.98 771.63,539.99 773.87,529.35 C774.55,526.13 775.47,522.60 775.92,521.50 C777.46,517.71 779.16,510.48 780.04,504.00 C781.61,492.47 778.43,485.40 767.84,476.79 C759.78,470.25 746.23,458.82 743.22,456.04 C741.42,454.37 739.52,453.00 738.99,453.00 C738.47,453.00 735.22,450.26 731.77,446.91 C728.32,443.56 723.85,440.05 721.84,439.11 C718.24,437.43 712.79,432.34 710.98,428.97 C710.48,428.03 708.37,426.46 706.28,425.47 C704.20,424.49 700.10,421.73 697.16,419.34 C694.22,416.95 691.24,415.00 690.52,415.00 C689.81,415.00 689.00,414.11 688.72,413.03 C688.43,411.94 686.62,410.12 684.68,408.98 C682.75,407.83 680.44,405.80 679.56,404.45 C678.68,403.10 677.31,402.00 676.51,402.00 C675.72,402.00 672.25,399.47 668.79,396.37 C665.33,393.27 660.92,389.70 659.00,388.43 C657.08,387.16 653.70,384.47 651.50,382.46 C647.12,378.46 642.30,376.00 638.83,376.00 C635.68,376.00 630.00,381.78 630.00,384.97 C630.00,386.39 629.27,388.59 628.38,389.87 C626.49,392.57 622.74,408.77 623.66,410.26 C624.63,411.83 624.77,420.00 623.83,420.00 C620.20,420.00 627.18,433.72 633.06,438.14 C634.78,439.44 640.13,444.10 644.94,448.50 C649.74,452.90 655.97,458.30 658.77,460.50 C661.57,462.70 664.37,465.65 664.98,467.07 C665.59,468.49 667.52,470.16 669.29,470.81 C673.49,472.36 681.00,479.40 681.00,481.79 C681.00,483.67 683.36,485.28 688.00,486.57 C690.27,487.20 692.19,488.94 697.24,494.93 C698.20,496.07 699.88,497.00 700.99,497.00 C702.10,497.00 703.00,497.61 703.00,498.35 C703.00,499.09 704.58,501.31 706.50,503.30 C710.29,507.20 711.04,510.74 708.25,511.61 C703.38,513.11 694.75,517.63 692.83,519.68 C691.48,521.12 689.48,522.01 687.58,522.02 C685.58,522.03 683.27,523.11 681.00,525.12 C676.87,528.76 672.61,531.10 668.60,531.94 C667.00,532.27 665.20,533.43 664.60,534.52 C662.96,537.48 661.91,537.97 657.23,537.98 C653.68,538.00 652.24,538.65 648.73,541.86 C646.40,543.98 642.87,546.25 640.88,546.89 C638.89,547.54 635.52,549.39 633.38,551.01 C631.25,552.62 628.97,553.96 628.33,553.97 C627.68,553.99 625.82,555.12 624.18,556.50 C622.55,557.88 620.60,559.01 619.86,559.03 C619.11,559.05 617.63,559.72 616.56,560.53 C615.49,561.34 613.66,562.00 612.50,562.00 C611.33,562.00 609.38,562.93 608.17,564.06 C606.95,565.19 604.28,566.82 602.23,567.67 C600.18,568.52 596.62,570.48 594.32,572.03 C592.01,573.58 588.41,575.65 586.32,576.62 C584.22,577.60 581.38,579.49 580.00,580.81 C578.62,582.13 575.92,584.20 574.00,585.39 C570.97,587.27 570.46,588.16 570.18,592.01 C570.01,594.46 569.36,597.07 568.74,597.82 C568.12,598.56 567.30,601.87 566.91,605.16 C566.52,608.45 565.30,613.03 564.20,615.32 C561.69,620.56 559.62,628.57 559.76,632.50 C559.82,634.15 559.91,637.05 559.96,638.96 C560.01,640.86 560.60,642.78 561.27,643.24 ZM 430.87 704.44 C432.87,705.50 437.58,705.77 450.50,705.59 C465.82,705.37 467.96,705.13 472.20,703.09 C475.75,701.38 477.41,699.79 478.95,696.60 C480.08,694.27 481.00,691.80 481.00,691.11 C481.00,690.42 482.10,687.98 483.44,685.68 C484.79,683.38 486.56,678.58 487.38,675.00 C490.08,663.27 492.95,653.33 494.48,650.39 C495.31,648.80 495.99,645.85 495.99,643.83 C496.00,641.37 496.83,639.17 498.50,637.18 C500.29,635.06 501.00,633.03 501.00,630.07 C501.00,627.72 502.02,623.90 503.36,621.22 C504.66,618.62 506.05,614.70 506.45,612.50 C506.85,610.30 508.02,606.47 509.06,604.00 C510.88,599.65 511.26,598.13 512.65,589.50 C513.01,587.30 514.10,584.47 515.08,583.20 C516.06,581.94 517.15,579.46 517.51,577.70 C517.86,575.94 518.77,572.70 519.52,570.50 C520.27,568.30 521.15,564.39 521.49,561.82 C521.83,559.25 522.95,556.06 523.99,554.74 C525.03,553.41 526.41,549.34 527.04,545.68 C527.85,541.03 529.08,537.92 531.10,535.37 C533.03,532.94 533.80,532.11 533.84,531.25 C533.86,530.73 533.61,530.20 533.18,529.29 C533.09,529.09 532.99,528.87 532.87,528.62 C531.95,526.60 532.13,525.36 533.87,521.76 C535.04,519.34 536.00,516.47 536.00,515.37 C536.00,514.27 537.16,510.96 538.59,508.01 C540.01,505.06 541.52,500.45 541.95,497.76 C542.37,495.08 543.23,492.37 543.86,491.74 C544.49,491.11 545.00,489.22 545.00,487.54 C545.00,485.85 545.84,482.89 546.88,480.97 C547.91,479.04 549.51,474.10 550.44,469.98 C551.37,465.87 552.77,461.15 553.54,459.50 C554.32,457.85 555.44,454.26 556.03,451.52 C556.63,448.78 557.99,444.56 559.06,442.14 C560.13,439.72 561.00,436.66 561.00,435.34 C561.00,434.02 562.07,430.81 563.38,428.22 C564.68,425.62 566.08,421.92 566.48,420.00 C566.88,418.08 568.06,413.93 569.10,410.78 C570.15,407.64 571.00,403.91 571.00,402.49 C571.00,401.08 571.84,398.25 572.86,396.21 C573.88,394.17 574.97,390.87 575.27,388.88 C575.58,386.89 576.77,383.20 577.91,380.69 C579.06,378.18 580.46,373.73 581.03,370.81 C581.60,367.89 582.89,363.70 583.89,361.50 C588.67,351.02 592.97,336.05 592.99,329.83 C593.00,325.93 592.49,324.64 589.92,322.08 C586.80,318.95 585.00,318.19 585.00,320.00 C585.00,321.45 578.24,321.23 577.76,319.77 C577.17,318.02 559.83,318.01 559.25,319.75 C558.76,321.23 555.00,321.45 555.00,320.00 C555.00,316.24 542.72,323.25 540.58,328.23 C535.80,339.37 534.00,344.45 534.00,346.82 C533.99,348.29 532.87,351.71 531.50,354.42 C530.12,357.13 529.00,360.21 529.00,361.27 C529.00,363.29 522.82,382.96 520.31,388.91 C519.53,390.79 518.51,394.16 518.05,396.41 C517.60,398.66 516.54,402.52 515.70,405.00 C514.85,407.48 513.42,412.65 512.50,416.50 C511.59,420.35 509.90,424.51 508.76,425.74 C507.27,427.34 506.72,429.15 506.83,432.08 C506.92,434.34 506.32,437.13 505.50,438.31 C504.67,439.48 504.00,442.00 504.00,443.89 C504.00,445.87 502.72,449.60 501.00,452.65 C499.35,455.58 498.00,459.08 498.00,460.45 C498.00,461.81 497.10,465.21 496.00,468.00 C494.90,470.79 494.00,473.90 494.00,474.91 C494.00,475.93 493.40,477.25 492.66,477.86 C491.93,478.48 490.77,482.24 490.08,486.24 C489.40,490.23 488.43,494.17 487.93,495.00 C484.78,500.21 483.96,502.40 483.39,507.09 C483.04,509.97 481.92,514.17 480.90,516.42 C479.88,518.66 479.03,521.71 479.02,523.19 C479.01,524.67 478.13,527.37 477.07,529.19 C476.00,531.01 474.45,535.47 473.61,539.11 C472.78,542.74 470.95,547.87 469.55,550.51 C468.15,553.14 467.00,556.84 467.00,558.71 C467.00,560.59 466.47,563.11 465.81,564.32 C465.16,565.52 464.30,568.82 463.91,571.66 C463.52,574.49 462.24,578.11 461.07,579.69 C459.90,581.27 458.58,584.80 458.13,587.53 C457.68,590.26 456.57,594.24 455.66,596.37 C454.75,598.50 453.99,601.88 453.99,603.87 C453.98,605.88 452.87,609.44 451.49,611.85 C450.12,614.25 449.00,617.46 449.00,618.99 C449.00,620.52 448.33,623.06 447.51,624.64 C446.68,626.21 446.01,628.26 446.01,629.19 C446.00,630.12 445.61,631.12 445.14,631.41 C444.67,631.71 443.49,634.77 442.53,638.22 C441.57,641.68 440.43,644.95 440.01,645.50 C439.58,646.05 438.90,648.50 438.49,650.95 C438.09,653.40 436.91,657.37 435.88,659.78 C434.85,662.19 434.00,665.24 434.00,666.55 C434.00,670.56 430.95,678.35 428.26,681.21 C425.85,683.76 425.74,684.35 426.26,691.71 C426.94,701.15 427.48,702.66 430.87,704.44 Z" fill="rgb(0,90,136)"/>
<path d="M 380.00 640.07 C374.24,639.41 370.00,637.64 370.00,635.91 C370.00,635.35 368.00,634.00 365.55,632.92 C363.11,631.84 360.17,629.75 359.01,628.29 C357.86,626.82 355.86,624.92 354.57,624.06 C353.28,623.20 348.01,619.08 342.86,614.91 C337.71,610.73 332.71,607.03 331.73,606.68 C330.76,606.34 329.55,604.95 329.04,603.60 C328.52,602.25 326.46,600.36 324.46,599.41 C322.45,598.46 320.33,596.63 319.75,595.34 C319.16,594.05 318.08,593.00 317.35,593.00 C316.62,593.00 313.59,590.80 310.63,588.12 C307.66,585.43 303.60,582.69 301.61,582.04 C299.61,581.38 297.42,579.78 296.74,578.48 C295.49,576.11 292.36,573.56 283.85,567.99 C281.29,566.32 278.94,564.29 278.63,563.48 C278.32,562.67 276.70,561.18 275.02,560.16 C273.34,559.14 266.37,553.66 259.53,547.98 C245.16,536.06 244.17,534.41 244.57,523.00 C244.87,514.50 246.58,501.73 247.91,498.00 C248.40,496.62 249.32,492.34 249.95,488.48 C250.93,482.51 251.63,480.95 254.67,477.98 C256.63,476.07 258.60,473.53 259.06,472.34 C259.55,471.06 261.12,469.91 262.94,469.51 C264.62,469.14 266.00,468.43 266.00,467.93 C266.00,467.44 267.46,466.34 269.25,465.50 C271.04,464.66 274.75,462.79 277.50,461.34 C285.85,456.94 289.36,455.35 292.45,454.59 C294.07,454.19 296.41,452.77 297.65,451.43 C298.89,450.09 300.96,449.00 302.26,449.00 C303.55,449.00 306.79,447.61 309.46,445.92 C312.13,444.23 317.19,441.88 320.69,440.71 C324.20,439.54 327.93,437.78 328.99,436.79 C330.05,435.81 331.27,435.00 331.71,435.00 C332.14,435.00 336.03,433.18 340.35,430.95 C344.67,428.73 351.04,425.78 354.51,424.39 C357.98,423.00 361.60,420.99 362.56,419.93 C363.52,418.87 365.28,418.00 366.46,418.00 C367.64,418.00 370.83,416.58 373.55,414.83 C376.27,413.09 380.52,410.88 383.00,409.92 C385.48,408.96 390.17,406.56 393.44,404.59 C396.71,402.62 400.13,401.00 401.05,401.00 C401.97,401.00 404.46,399.82 406.58,398.38 C408.70,396.94 412.54,395.14 415.10,394.38 C417.66,393.62 420.30,392.34 420.96,391.55 C421.62,390.76 424.48,389.35 427.33,388.42 C434.29,386.14 437.43,384.48 440.47,381.44 C443.02,378.89 452.63,375.07 456.61,375.02 C457.95,375.01 459.69,376.39 461.32,378.75 C463.66,382.14 463.82,382.93 462.93,387.00 C462.39,389.48 461.06,393.61 459.97,396.19 C458.89,398.76 458.00,401.98 458.00,403.34 C458.00,404.69 456.88,408.21 455.51,411.15 C454.14,414.10 453.02,418.35 453.01,420.62 C453.00,423.20 452.26,425.67 451.00,427.27 C449.90,428.67 448.99,430.19 448.97,430.66 C448.88,433.71 437.07,443.05 428.63,446.75 C427.05,447.44 424.22,449.35 422.34,451.00 C419.80,453.23 417.94,454.00 415.04,454.00 C411.39,454.00 410.57,454.47 407.21,458.47 C406.50,459.31 404.85,460.00 403.54,460.00 C402.23,460.00 397.89,462.25 393.90,465.00 C389.91,467.75 385.63,470.00 384.38,470.00 C383.14,470.00 381.86,470.41 381.55,470.92 C380.85,472.06 372.76,476.62 369.76,477.58 C368.54,477.96 365.35,479.79 362.66,481.64 C359.97,483.49 356.74,485.00 355.48,485.00 C352.16,485.00 343.16,489.93 342.46,492.13 C342.11,493.22 340.94,494.00 339.62,494.00 C338.39,494.00 336.46,494.86 335.33,495.91 C332.86,498.21 325.62,502.00 323.69,502.00 C322.93,502.00 321.50,502.90 320.50,504.00 C319.50,505.10 318.16,506.00 317.52,506.00 C316.01,506.00 312.00,510.26 312.00,511.85 C312.00,513.18 319.81,521.00 321.13,521.00 C321.57,521.00 325.70,524.71 330.30,529.25 C340.73,539.53 350.68,548.52 354.13,550.78 C355.58,551.73 358.57,554.36 360.77,556.64 C362.97,558.91 367.19,562.56 370.14,564.76 C373.09,566.95 377.20,570.59 379.28,572.86 C381.36,575.13 384.29,577.62 385.78,578.40 C387.28,579.17 389.42,580.86 390.54,582.15 C391.66,583.44 393.57,585.17 394.79,586.00 C399.61,589.26 400.86,606.97 397.02,617.50 C395.82,620.80 394.51,625.86 394.11,628.75 C393.56,632.80 392.62,634.79 390.00,637.50 C388.13,639.42 386.36,640.93 386.05,640.85 C385.75,640.77 383.02,640.42 380.00,640.07 ZM 561.27 643.24 C560.60,642.78 560.01,640.86 559.96,638.96 C559.91,637.05 559.82,634.15 559.76,632.50 C559.62,628.57 561.69,620.56 564.20,615.32 C565.30,613.03 566.52,608.45 566.91,605.16 C567.30,601.87 568.12,598.56 568.74,597.82 C569.36,597.07 570.01,594.46 570.18,592.01 C570.46,588.16 570.97,587.27 574.00,585.39 C575.92,584.20 578.62,582.13 580.00,580.81 C581.38,579.49 584.22,577.60 586.32,576.62 C588.41,575.65 592.01,573.58 594.32,572.03 C596.62,570.48 600.18,568.52 602.23,567.67 C604.28,566.82 606.95,565.19 608.17,564.06 C609.38,562.93 611.33,562.00 612.50,562.00 C613.66,562.00 615.49,561.34 616.56,560.53 C617.63,559.72 619.11,559.05 619.86,559.03 C620.60,559.01 622.55,557.88 624.18,556.50 C625.82,555.12 627.68,553.99 628.33,553.97 C628.97,553.96 631.25,552.62 633.38,551.01 C635.52,549.39 638.89,547.54 640.88,546.89 C642.87,546.25 646.40,543.98 648.73,541.86 C652.24,538.65 653.68,538.00 657.23,537.98 C661.91,537.97 662.96,537.48 664.60,534.52 C665.20,533.43 667.00,532.27 668.60,531.94 C672.61,531.10 676.87,528.76 681.00,525.12 C683.27,523.11 685.58,522.03 687.58,522.02 C689.48,522.01 691.48,521.12 692.83,519.68 C694.75,517.63 703.38,513.11 708.25,511.61 C711.04,510.74 710.29,507.20 706.50,503.30 C704.58,501.31 703.00,499.09 703.00,498.35 C703.00,497.61 702.10,497.00 700.99,497.00 C699.88,497.00 698.20,496.07 697.24,494.93 C692.19,488.94 690.27,487.20 688.00,486.57 C683.36,485.28 681.00,483.67 681.00,481.79 C681.00,479.40 673.49,472.36 669.29,470.81 C667.52,470.16 665.59,468.49 664.98,467.07 C664.37,465.65 661.57,462.70 658.77,460.50 C655.97,458.30 649.74,452.90 644.94,448.50 C640.13,444.10 634.78,439.44 633.06,438.14 C627.18,433.72 620.20,420.00 623.83,420.00 C624.77,420.00 624.63,411.83 623.66,410.26 C622.74,408.77 626.49,392.57 628.38,389.87 C629.27,388.59 630.00,386.39 630.00,384.97 C630.00,381.78 635.68,376.00 638.83,376.00 C642.30,376.00 647.12,378.46 651.50,382.46 C653.70,384.47 657.08,387.16 659.00,388.43 C660.92,389.70 665.33,393.27 668.79,396.37 C672.25,399.47 675.72,402.00 676.51,402.00 C677.31,402.00 678.68,403.10 679.56,404.45 C680.44,405.80 682.75,407.83 684.68,408.98 C686.62,410.12 688.43,411.94 688.72,413.03 C689.00,414.11 689.81,415.00 690.52,415.00 C691.24,415.00 694.22,416.95 697.16,419.34 C700.10,421.73 704.20,424.49 706.28,425.47 C708.37,426.46 710.48,428.03 710.98,428.97 C712.79,432.34 718.24,437.43 721.84,439.11 C723.85,440.05 728.32,443.56 731.77,446.91 C735.22,450.26 738.47,453.00 738.99,453.00 C739.52,453.00 741.42,454.37 743.22,456.04 C746.23,458.82 759.78,470.25 767.84,476.79 C778.43,485.40 781.61,492.47 780.04,504.00 C779.16,510.48 777.46,517.71 775.92,521.50 C775.47,522.60 774.55,526.13 773.87,529.35 C771.63,539.99 765.32,546.98 753.73,551.69 C750.35,553.06 746.49,555.05 745.15,556.09 C743.82,557.14 741.93,558.00 740.94,558.00 C739.96,558.00 737.88,559.06 736.33,560.34 C734.77,561.63 731.25,563.51 728.50,564.51 C725.75,565.52 722.79,566.94 721.92,567.67 C721.05,568.40 719.65,569.00 718.81,569.00 C717.96,569.00 716.13,569.90 714.73,571.00 C713.33,572.10 711.79,573.00 711.31,573.00 C710.82,573.00 702.82,576.83 693.53,581.50 C684.23,586.17 676.07,590.00 675.39,590.00 C674.70,590.00 673.55,590.58 672.82,591.28 C672.09,591.98 668.80,593.84 665.50,595.40 C662.20,596.96 658.38,598.81 657.00,599.50 C655.62,600.20 653.03,601.08 651.24,601.47 C649.45,601.85 647.54,603.00 646.99,604.01 C646.45,605.03 644.99,606.17 643.75,606.54 C642.51,606.91 636.95,609.41 631.38,612.11 C625.82,614.80 620.56,617.00 619.71,617.00 C618.85,617.00 616.88,618.05 615.33,619.34 C613.77,620.63 611.02,622.19 609.21,622.80 C607.39,623.42 604.69,624.76 603.21,625.78 C601.72,626.80 596.90,629.11 592.50,630.91 C588.10,632.72 583.83,634.77 583.00,635.48 C582.17,636.19 580.38,637.11 579.01,637.52 C577.65,637.94 574.90,639.36 572.90,640.68 C568.95,643.30 563.22,644.56 561.27,643.24 ZM 430.87 704.44 C427.48,702.66 426.94,701.15 426.26,691.71 C425.74,684.35 425.85,683.76 428.26,681.21 C430.95,678.35 434.00,670.56 434.00,666.55 C434.00,665.24 434.85,662.19 435.88,659.78 C436.91,657.37 438.09,653.40 438.49,650.95 C438.90,648.50 439.58,646.05 440.01,645.50 C440.43,644.95 441.57,641.68 442.53,638.22 C443.49,634.77 444.67,631.71 445.14,631.41 C445.61,631.12 446.00,630.12 446.01,629.19 C446.01,628.26 446.68,626.21 447.51,624.64 C448.33,623.06 449.00,620.52 449.00,618.99 C449.00,617.46 450.12,614.25 451.49,611.85 C452.87,609.44 453.98,605.88 453.99,603.87 C453.99,601.88 454.75,598.50 455.66,596.37 C456.57,594.24 457.68,590.26 458.13,587.53 C458.58,584.80 459.90,581.27 461.07,579.69 C462.24,578.11 463.52,574.49 463.91,571.66 C464.30,568.82 465.16,565.52 465.81,564.32 C466.47,563.11 467.00,560.59 467.00,558.71 C467.00,556.84 468.15,553.14 469.55,550.51 C470.95,547.87 472.78,542.74 473.61,539.11 C474.45,535.47 476.00,531.01 477.07,529.19 C478.13,527.37 479.01,524.67 479.02,523.19 C479.03,521.71 479.88,518.66 480.90,516.42 C481.92,514.17 483.04,509.97 483.39,507.09 C483.96,502.40 484.78,500.21 487.93,495.00 C488.43,494.17 489.40,490.23 490.08,486.24 C490.77,482.24 491.93,478.48 492.66,477.86 C493.40,477.25 494.00,475.93 494.00,474.91 C494.00,473.90 494.90,470.79 496.00,468.00 C497.10,465.21 498.00,461.81 498.00,460.45 C498.00,459.08 499.35,455.58 501.00,452.65 C502.72,449.60 504.00,445.87 504.00,443.89 C504.00,442.00 504.67,439.48 505.50,438.31 C506.32,437.13 506.92,434.34 506.83,432.08 C506.72,429.15 507.27,427.34 508.76,425.74 C509.90,424.51 511.59,420.35 512.50,416.50 C513.42,412.65 514.85,407.48 515.70,405.00 C516.54,402.52 517.60,398.66 518.05,396.41 C518.51,394.16 519.53,390.79 520.31,388.91 C522.82,382.96 529.00,363.29 529.00,361.27 C529.00,360.21 530.12,357.13 531.50,354.42 C532.87,351.71 533.99,348.29 534.00,346.82 C534.00,344.45 535.80,339.37 540.58,328.23 C542.72,323.25 555.00,316.24 555.00,320.00 C555.00,321.45 558.76,321.23 559.25,319.75 C559.83,318.01 577.17,318.02 577.76,319.77 C578.24,321.23 585.00,321.45 585.00,320.00 C585.00,318.19 586.80,318.95 589.92,322.08 C592.49,324.64 593.00,325.93 592.99,329.83 C592.97,336.05 588.67,351.02 583.89,361.50 C582.89,363.70 581.60,367.89 581.03,370.81 C580.46,373.73 579.06,378.18 577.91,380.69 C576.77,383.20 575.58,386.89 575.27,388.88 C574.97,390.87 573.88,394.17 572.86,396.21 C571.84,398.25 571.00,401.08 571.00,402.49 C571.00,403.91 570.15,407.64 569.10,410.78 C568.06,413.93 566.88,418.08 566.48,420.00 C566.08,421.92 564.68,425.62 563.38,428.22 C562.07,430.81 561.00,434.02 561.00,435.34 C561.00,436.66 560.13,439.72 559.06,442.14 C557.99,444.56 556.63,448.78 556.03,451.52 C555.44,454.26 554.32,457.85 553.54,459.50 C552.77,461.15 551.37,465.87 550.44,469.98 C549.51,474.10 547.91,479.04 546.88,480.97 C545.84,482.89 545.00,485.85 545.00,487.54 C545.00,489.22 544.49,491.11 543.86,491.74 C543.23,492.37 542.37,495.08 541.95,497.76 C541.52,500.45 540.01,505.06 538.59,508.01 C537.16,510.96 536.00,514.27 536.00,515.37 C536.00,516.47 535.04,519.34 533.87,521.76 C532.13,525.36 531.95,526.60 532.87,528.62 C532.99,528.87 533.09,529.09 533.18,529.29 C533.61,530.20 533.86,530.73 533.84,531.25 C533.80,532.11 533.03,532.94 531.10,535.37 C529.08,537.92 527.85,541.03 527.04,545.68 C526.41,549.34 525.03,553.41 523.99,554.74 C522.95,556.06 521.83,559.25 521.49,561.82 C521.15,564.39 520.27,568.30 519.52,570.50 C518.77,572.70 517.86,575.94 517.51,577.70 C517.15,579.46 516.06,581.94 515.08,583.20 C514.10,584.47 513.01,587.30 512.65,589.50 C511.26,598.13 510.88,599.65 509.06,604.00 C508.02,606.47 506.85,610.30 506.45,612.50 C506.05,614.70 504.66,618.62 503.36,621.22 C502.02,623.90 501.00,627.72 501.00,630.07 C501.00,633.03 500.29,635.06 498.50,637.18 C496.83,639.17 496.00,641.37 495.99,643.83 C495.99,645.85 495.31,648.80 494.48,650.39 C492.95,653.33 490.08,663.27 487.38,675.00 C486.56,678.58 484.79,683.38 483.44,685.68 C482.10,687.98 481.00,690.42 481.00,691.11 C481.00,691.80 480.08,694.27 478.95,696.60 C477.41,699.79 475.75,701.38 472.20,703.09 C467.96,705.13 465.82,705.37 450.50,705.59 C437.58,705.77 432.87,705.50 430.87,704.44 ZM 378.45 638.71 C382.46,641.09 386.41,640.07 388.41,636.13 C389.91,633.19 398.00,605.08 398.00,602.81 C398.00,602.02 397.31,599.05 396.47,596.23 C396.26,595.51 396.11,594.92 395.92,594.34 C394.51,590.21 390.62,586.92 342.69,544.50 C321.90,526.10 309.70,514.61 309.31,513.07 C308.04,508.05 310.49,506.29 342.00,489.59 C358.77,480.70 386.90,465.80 404.50,456.48 C436.17,439.71 442.76,435.39 446.91,428.63 C449.27,424.79 461.00,385.89 461.00,381.91 C461.00,379.75 460.43,378.90 458.72,378.47 C456.27,377.85 450.66,380.38 406.50,402.00 C392.75,408.73 375.20,417.28 367.50,421.00 C359.80,424.71 343.83,432.48 332.00,438.25 C320.17,444.03 300.15,453.78 287.50,459.93 C264.01,471.35 259.40,474.44 255.94,481.15 C253.83,485.24 245.98,519.42 246.03,524.33 C246.10,532.11 249.03,535.21 279.38,559.58 C295.19,572.28 308.89,583.30 309.83,584.08 C310.76,584.86 320.29,592.47 331.01,600.98 C341.73,609.50 350.73,616.70 351.00,616.99 C352.35,618.41 376.67,637.66 378.45,638.71 ZM 562.20 639.80 C562.86,640.46 564.17,641.00 565.12,641.00 C566.06,641.00 589.71,629.69 617.67,615.87 C645.63,602.05 689.42,580.42 715.00,567.81 C740.58,555.20 762.54,543.90 763.81,542.71 C768.64,538.17 771.77,530.73 774.91,516.32 C778.46,500.04 778.68,495.10 776.13,489.48 C773.85,484.47 774.07,484.66 708.50,431.97 C678.80,408.10 652.12,386.65 649.21,384.29 C643.24,379.45 637.68,378.49 634.70,381.78 C633.82,382.76 631.03,390.73 628.52,399.50 C628.28,400.32 628.05,401.11 627.83,401.88 C625.48,410.00 624.03,415.02 624.85,419.64 C626.25,427.53 634.28,434.25 655.82,453.31 C671.04,466.78 684.40,478.64 685.50,479.66 C686.60,480.67 692.97,486.36 699.65,492.28 C714.33,505.30 715.38,507.20 710.75,512.43 C709.51,513.82 682.85,528.52 651.50,545.08 C620.15,561.63 591.47,576.96 587.77,579.12 C576.26,585.87 574.53,589.09 565.08,621.50 C560.62,636.78 560.42,638.02 562.20,639.80 ZM 435.00 703.29 C435.83,703.60 442.58,703.88 450.00,703.92 C474.46,704.05 475.02,703.55 484.36,673.41 C488.10,661.36 492.65,646.78 494.48,641.00 C496.31,635.22 499.26,625.78 501.02,620.00 C502.79,614.22 505.76,604.66 507.62,598.75 L 514.38 577.25 C516.24,571.34 519.14,562.00 520.83,556.50 C522.51,551.00 538.99,498.08 557.45,438.89 C575.90,379.71 591.00,329.95 591.00,328.33 C591.00,326.71 590.08,324.39 588.96,323.19 C587.02,321.10 586.13,321.00 569.61,321.00 L 552.30 321.00 L 548.12 324.03 C542.96,327.77 542.62,328.54 534.48,355.00 C527.92,376.32 523.39,390.79 512.43,425.50 C509.30,435.40 505.72,446.88 504.47,451.00 C501.82,459.75 449.26,627.61 439.50,658.50 C430.77,686.12 429.00,692.41 429.00,695.81 C429.00,698.59 431.85,702.14 435.00,703.29 Z" fill="rgb(16,89,126)"/>
<path d="M 435.00 703.29 C431.85,702.14 429.00,698.59 429.00,695.81 C429.00,692.41 430.77,686.12 439.50,658.50 C449.26,627.61 501.82,459.75 504.47,451.00 C505.72,446.88 509.30,435.40 512.43,425.50 C523.39,390.79 527.92,376.32 534.48,355.00 C542.62,328.54 542.96,327.77 548.12,324.03 L 552.30 321.00 L 569.61 321.00 C586.13,321.00 587.02,321.10 588.96,323.19 C590.08,324.39 591.00,326.71 591.00,328.33 C591.00,329.95 575.90,379.71 557.45,438.89 C538.99,498.08 522.51,551.00 520.83,556.50 C519.14,562.00 516.24,571.34 514.38,577.25 C512.52,583.16 509.48,592.84 507.62,598.75 C505.76,604.66 502.79,614.22 501.02,620.00 C499.26,625.78 496.31,635.22 494.48,641.00 C492.65,646.78 488.10,661.36 484.36,673.41 C475.02,703.55 474.46,704.05 450.00,703.92 C442.58,703.88 435.83,703.60 435.00,703.29 ZM 562.20 639.80 C560.42,638.02 560.62,636.78 565.08,621.50 C574.53,589.09 576.26,585.87 587.77,579.12 C591.47,576.96 620.15,561.63 651.50,545.08 C682.85,528.52 709.51,513.82 710.75,512.43 C715.38,507.20 714.33,505.30 699.65,492.28 C692.97,486.36 686.60,480.67 685.50,479.66 C684.40,478.64 671.04,466.78 655.82,453.31 C620.51,422.06 621.49,423.99 628.52,399.50 C631.03,390.73 633.82,382.76 634.70,381.78 C637.68,378.49 643.24,379.45 649.21,384.29 C652.12,386.65 678.80,408.10 708.50,431.97 C774.07,484.66 773.85,484.47 776.13,489.48 C778.68,495.10 778.46,500.04 774.91,516.32 C771.77,530.73 768.64,538.17 763.81,542.71 C762.54,543.90 740.58,555.20 715.00,567.81 C689.42,580.42 645.63,602.05 617.67,615.87 C589.71,629.69 566.06,641.00 565.12,641.00 C564.17,641.00 562.86,640.46 562.20,639.80 ZM 378.45 638.71 C376.67,637.66 352.35,618.41 351.00,616.99 C350.73,616.70 341.73,609.50 331.01,600.98 C320.29,592.47 310.76,584.86 309.83,584.08 C308.89,583.30 295.19,572.28 279.38,559.58 C249.03,535.21 246.10,532.11 246.03,524.33 C245.98,519.42 253.83,485.24 255.94,481.15 C259.40,474.44 264.01,471.35 287.50,459.93 C300.15,453.78 320.17,444.03 332.00,438.25 C343.83,432.48 359.80,424.71 367.50,421.00 C375.20,417.28 392.75,408.73 406.50,402.00 C450.66,380.38 456.27,377.85 458.72,378.47 C460.43,378.90 461.00,379.75 461.00,381.91 C461.00,385.89 449.27,424.79 446.91,428.63 C442.76,435.39 436.17,439.71 404.50,456.48 C386.90,465.80 358.77,480.70 342.00,489.59 C310.49,506.29 308.04,508.05 309.31,513.07 C309.70,514.61 321.90,526.10 342.69,544.50 C397.29,592.82 394.73,590.36 396.47,596.23 C397.31,599.05 398.00,602.02 398.00,602.81 C398.00,605.08 389.91,633.19 388.41,636.13 C386.41,640.07 382.46,641.09 378.45,638.71 Z" fill="rgb(252,254,253)"/>
</g>
</svg>